# xmcd
#
# Track frame offsets:
#        150
#        33300
#        58165
#
# Disc length: 1124 seconds
#
# Revision: 0
# Processed by: cddbd v1.5.1PL2 Copyright (c) Steve Scherf et al.
# Submitted via: ExactAudioCopy v0.95a5
#
DISCID=21046203
DTITLE=Monday Michiru - Fallin'
DYEAR=2000
DGENRE=Blues
TTITLE0=Restless
TTITLE1=Fallin'
TTITLE2=Early Dawn (Song For Nikita)
EXTD=
EXTT0=
EXTT1=
EXTT2=
PLAYORDER=
